HIERARCHY
ROOT Hips
{
    OFFSET 0.000000 0.000000 0.000000
    CHANNELS 6 Xposition Yposition Zposition Zrotation Xrotation Yrotation
        JOINT Chest
        {
            OFFSET -0.000000 31.471069 -0.000000
            CHANNELS 3 Zrotation Xrotation Yrotation
            JOINT Neck
            {
                OFFSET -0.000000 23.202770 0.000000
                CHANNELS 3 Zrotation Xrotation Yrotation
                JOINT Head
                {
                    OFFSET -0.000000 11.000000 0.000000
                    CHANNELS 3 Zrotation Xrotation Yrotation
                    End Site
                    {
                        OFFSET -0.000000 17.000000 0.000000
                    }
                }
            }
            JOINT LeftCollar
            {
                OFFSET -0.000000 23.202770 0.000000
                CHANNELS 3 Zrotation Xrotation Yrotation
                JOINT LeftShoulder
                {
                    OFFSET 21.000000 -0.000000 0.000000
                    CHANNELS 3 Zrotation Xrotation Yrotation
                    JOINT LeftElbow
                    {
                        OFFSET 23.506504 0.000000 0.000000
                        CHANNELS 3 Zrotation Xrotation Yrotation
                        JOINT LeftWrist
                        {
                            OFFSET 26.183235 0.000000 0.000000
                            CHANNELS 3 Zrotation Xrotation Yrotation
                            End Site
                            {
                                OFFSET 0.000000 -15.000001 0.000000
                            }
                        }
                    }
                }
            }
            JOINT RightCollar
            {
                OFFSET -0.000000 23.202770 0.000000
                CHANNELS 3 Zrotation Xrotation Yrotation
                JOINT RightShoulder
                {
                    OFFSET -21.000000 0.000000 0.000000
                    CHANNELS 3 Zrotation Xrotation Yrotation
                    JOINT RightElbow
                    {
                        OFFSET -23.506504 0.000000 0.000000
                        CHANNELS 3 Zrotation Xrotation Yrotation
                        JOINT RightWrist
                        {
                            OFFSET -26.183235 0.000000 0.000000
                            CHANNELS 3 Zrotation Xrotation Yrotation
                            End Site
                            {
                                OFFSET -0.000000 -15.000001 0.000000
                            }
                        }
                    }
                }
            }
        }
    JOINT LeftHip
    {
        OFFSET 12.000000 0.000000 0.000000
        CHANNELS 3 Zrotation Xrotation Yrotation
        JOINT LeftKnee
        {
            OFFSET -0.000000 -41.026867 0.000000
            CHANNELS 3 Zrotation Xrotation Yrotation
            JOINT LeftAnkle
            {
                OFFSET -0.000000 -42.711906 0.000000
                CHANNELS 3 Zrotation Xrotation Yrotation
                End Site
                {
                    OFFSET -0.000000 -5.000000 17.000000
                }
            }
        }
    }
    JOINT RightHip
    {
        OFFSET -12.000000 0.000000 0.000000
        CHANNELS 3 Zrotation Xrotation Yrotation
        JOINT RightKnee
        {
            OFFSET -0.000000 -41.026867 0.000000
            CHANNELS 3 Zrotation Xrotation Yrotation
            JOINT RightAnkle
            {
                OFFSET -0.000000 -42.711906 0.000000
                CHANNELS 3 Zrotation Xrotation Yrotation
                End Site
                {
                    OFFSET -0.000000 -5.000000 17.000000
                }
            }
        }
    }
}
MOTION
Frames:    9
Frame Time:    0.010000
22.102495    91.373268    7.910485    20.569004    -13.193020    -65.201218    15.163277    21.914446    -8.547516    10.960030    3.435088    -21.958174    -4.876368    5.427137    -21.391336    -19.091942    -0.389458    2.334423    -30.422709    37.383198    -21.823469    -16.067141    8.683832    -57.209660    100.771523    -3.712645    -23.162720    17.953791    0.956859    5.861638    18.051840    10.983427    18.732765    -30.427814    -5.289253    19.121260    -98.297157    23.253792    -31.843918    1.698183    -7.617664    -3.233510    -1.554149    4.814846    -4.760475    -19.612047    3.434859    36.036976    -19.918106    -39.477180    4.192624    -1.961106    38.186275    11.474901    -0.210506    -5.911952    -17.720665    
22.107134    91.433891    7.839756    20.519987    -13.173264    -64.957100    15.060712    21.766661    -8.520759    10.971405    3.388367    -21.696373    -5.046161    5.475137    -21.122608    -19.142090    -0.411296    2.323645    -30.083378    37.701218    -22.299236    -15.749278    8.502587    -57.433727    100.607826    -3.665467    -23.201969    18.003727    0.933787    5.681765    18.575098    11.443721    18.810829    -30.462502    -5.264969    19.147747    -98.768509    23.350193    -31.827190    1.628929    -7.522754    -3.448724    -1.718078    5.129207    -4.612346    -19.462006    3.339790    36.000103    -19.927221    -39.210152    4.136261    -1.949991    37.956085    11.415095    -0.172181    -5.862355    -17.903122    
22.112978    91.496620    7.768579    20.471354    -13.145807    -64.694595    14.958508    21.586773    -8.499419    10.946312    3.343237    -21.399948    -5.209123    5.539084    -20.819777    -19.188465    -0.378895    2.347544    -29.767605    37.979240    -22.768393    -15.470801    8.388621    -57.677620    100.697594    -3.677059    -23.109581    18.068758    0.895727    5.539316    19.147383    11.838830    18.826769    -30.420052    -5.279893    19.194181    -99.356194    23.550753    -31.760157    1.538744    -7.452678    -3.597763    -1.865890    5.468861    -4.591086    -19.434759    3.197514    35.984528    -19.941021    -38.934681    4.066423    -1.939519    37.720364    11.338864    -0.126260    -5.807379    -18.068213    
22.119398    91.560158    7.696782    20.420527    -13.110249    -64.417946    14.859179    21.379246    -8.482028    10.886261    3.295112    -21.071135    -5.368235    5.620030    -20.484930    -19.229246    -0.408586    2.400496    -29.488718    38.321743    -23.221537    -15.037459    8.146091    -58.034393    100.842979    -3.703978    -22.922359    18.149117    0.875341    5.435345    19.763710    12.131100    18.768776    -30.280516    -5.267692    19.282505    -100.025040    23.760113    -31.620430    1.429689    -7.403747    -3.675303    -1.997065    5.834422    -4.694314    -19.522116    2.988699    35.996037    -19.952948    -38.651123    3.991783    -1.928124    37.480431    11.246040    -0.078292    -5.748728    -18.221848    
22.125725    91.623222    7.624232    20.363955    -13.065920    -64.130913    14.764752    21.151007    -8.466059    10.794887    3.240166    -20.712265    -5.525051    5.715651    -20.121025    -19.269634    -0.438308    2.476872    -29.261396    38.639416    -23.619099    -14.656935    7.990270    -58.405239    101.227959    -3.790593    -22.644339    18.246675    0.856462    5.366732    20.406195    12.346623    18.647530    -30.074957    -5.237812    19.380850    -100.772453    23.996281    -31.440493    1.304721    -7.369502    -3.687712    -2.112775    6.221789    -4.899835    -19.699369    2.704382    36.028236    -19.956707    -38.358341    3.919374    -1.914465    37.237103    11.141768    -0.031780    -5.688831    -18.374706    
22.131420    91.684631    7.550871    20.297911    -13.011919    -63.836658    14.677534    20.909597    -8.448276    10.676810    3.176096    -20.325785    -5.679807    5.819523    -19.730457    -19.312334    -0.440191    2.574170    -29.064171    38.905659    -23.991388    -14.319831    7.877823    -58.804150    101.769783    -3.927154    -22.332380    18.358374    0.847048    5.329111    21.067749    12.494406    18.464031    -29.791105    -5.184981    19.488392    -101.609558    24.239159    -31.199203    1.166998    -7.341682    -3.651034    -2.215498    6.622343    -5.170018    -19.922003    2.349390    36.063915    -19.947187    -38.054714    3.853638    -1.897142    36.991184    11.035083    0.013230    -5.630386    -18.540583    
22.136194    91.743347    7.476671    20.219162    -12.947092    -63.537888    14.599185    20.661432    -8.425042    10.539429    3.104570    -19.916203    -5.831348    5.920114    -19.317829    -19.356272    -0.462012    2.685264    -28.895517    39.167953    -24.337435    -13.947718    7.726384    -59.266087    102.358437    -4.092934    -21.999916    18.479006    0.886380    5.312892    21.737822    12.560238    18.232285    -29.407286    -5.127811    19.603685    -102.562256    24.474483    -30.855183    1.020028    -7.311821    -3.587336    -2.309754    7.025188    -5.458787    -20.132710    1.940705    36.079506    -19.920759    -37.739132    3.794984    -1.875681    36.743500    10.937706    0.057035    -5.575229    -18.732311    
22.140053    91.798630    7.401683    20.125229    -12.870204    -63.236607    14.530957    20.411844    -8.393103    10.388262    3.028023    -19.486450    -5.976086    6.007298    -18.886948    -19.402252    -0.498520    2.804359    -28.760386    39.414471    -24.638643    -13.597382    7.601252    -59.764618    103.021927    -4.290363    -21.635391    18.615919    0.879237    5.308518    22.389599    12.669239    17.970568    -29.032438    -5.075986    19.656485    -103.525497    24.694849    -30.553049    0.867284    -7.272503    -3.520581    -2.401563    7.419409    -5.719349    -20.275145    1.502030    36.053276    -19.875708    -37.411091    3.738536    -1.851949    36.494011    10.863484    0.097893    -5.522216    -18.956974    
22.143341    91.850044    7.326081    20.015110    -12.780204    -62.933865    14.473814    20.164223    -8.349422    10.227692    2.950400    -19.040325    -6.109654    6.071044    -18.441393    -19.451830    -0.529013    2.925968    -28.649691    39.626297    -24.902712    -13.290834    7.518815    -60.289566    103.732712    -4.512383    -21.245264    18.763569    0.864857    5.307350    23.032295    12.798742    17.659037    -28.587931    -4.996268    19.693607    -104.551941    24.878727    -30.210114    0.711589    -7.218900    -3.472274    -2.497615    7.795575    -5.912044    -20.311829    1.053804    35.974651    -19.812712    -37.071293    3.674186    -1.830689    36.242332    10.826469    0.135287    -5.468750    -19.213144    
